#Comment line ignore any data following # character 
#Hierarchical Translation and Rotation (.htr) file 
[Header]	
#Header keywords are followed by a single value 
FileType HTR		#Single word string
DataType HTRS		#Translation followed by rotation and scale data
FileVersion 1		#integer
NumSegments 84		#integer
NumFrames 2		#integer
DataFrameRate 30		#integer, data frame rate in this file
EulerRotationOrder ZYX
CalibrationUnits mm
RotationUnits Degrees
GlobalAxisofGravity Y
BoneLengthAxis Y
ScaleFactor 1.00
[SegmentNames&Hierarchy]
#CHILD	PARENT
MASTER GLOBAL
root MASTER
chest root
L_mid_tent01 root
R_mid_tent01 root
spine01 root
Bip01_Neck chest
L_humerus chest
R_humerus chest
weapon_bone chest
Bip01_Head Bip01_Neck
eye_left_bone Bip01_Head
eye_right_bone Bip01_Head
L_forearm L_humerus
L_front_hand L_forearm
L_weapon_bone L_forearm
L_front_hand01_01 L_front_hand
L_front_hand02_01 L_front_hand
L_front_hand03_01 L_front_hand
L_front_hand01_02 L_front_hand01_01
L_front_hand02_02 L_front_hand02_01
L_front_hand03_02 L_front_hand03_01
R_forearm R_humerus
R_front_hand R_forearm
R_weapon_bone R_forearm
R_front_hand01_01 R_front_hand
R_front_hand02_01 R_front_hand
R_front_hand03_01 R_front_hand
R_front_hand01_02 R_front_hand01_01
R_front_hand02_02 R_front_hand02_01
R_front_hand03_02 R_front_hand03_01
null_rope01_connect L_mid_tent01
Rope1_Seg01 null_rope01_connect
Rope1_Seg02 Rope1_Seg01
Rope1_Seg03 Rope1_Seg02
Rope1_Seg04 Rope1_Seg03
Rope1_Seg05 Rope1_Seg04
Rope1_Seg06 Rope1_Seg05
Rope1_Seg07 Rope1_Seg06
Rope1_Seg09 Rope1_Seg07
L_mid_hand01 Rope1_Seg09
L_mid_hand02 Rope1_Seg09
L_mid_hand03 Rope1_Seg09
null_rope02_connect R_mid_tent01
Rope2_Seg01 null_rope02_connect
Rope2_Seg02 Rope2_Seg01
Rope2_Seg03 Rope2_Seg02
Rope2_Seg04 Rope2_Seg03
Rope2_Seg05 Rope2_Seg04
Rope2_Seg06 Rope2_Seg05
Rope2_Seg07 Rope2_Seg06
Rope2_Seg09 Rope2_Seg07
R_mid_hand01 Rope2_Seg09
R_mid_hand02 Rope2_Seg09
R_mid_hand03 Rope2_Seg09
spine02 spine01
spine03 spine02
pelvis spine03
null_rope03_connect pelvis
null_rope04_connect pelvis
Rope3_Seg01 null_rope03_connect
Rope3_Seg02 Rope3_Seg01
Rope3_Seg03 Rope3_Seg02
Rope3_Seg04 Rope3_Seg03
Rope3_Seg05 Rope3_Seg04
Rope3_Seg06 Rope3_Seg05
Rope3_Seg07 Rope3_Seg06
Rope3_Seg08 Rope3_Seg07
Rope3_Seg09 Rope3_Seg08
R_rear_hand01 Rope3_Seg09
R_rear_hand02 Rope3_Seg09
R_rear_hand03 Rope3_Seg09
Rope4_Seg01 null_rope04_connect
Rope4_Seg02 Rope4_Seg01
Rope4_Seg03 Rope4_Seg02
Rope4_Seg04 Rope4_Seg03
Rope4_Seg05 Rope4_Seg04
Rope4_Seg06 Rope4_Seg05
Rope4_Seg07 Rope4_Seg06
Rope4_Seg08 Rope4_Seg07
Rope4_Seg09 Rope4_Seg08
L_rear_hand01 Rope4_Seg09
L_rear_hand02 Rope4_Seg09
L_rear_hand03 Rope4_Seg09
[BasePosition]
#SegmentName Tx, Ty, Tz, Rx, Ry, Rz, BoneLength
MASTER 0.000000 0.000000 0.000000 -90.000000 0.000000 0.000000 10.000000 
root 0.000000 0.000000 0.000000 0.000000 0.000000 0.000000 10.000000 
chest 0.000000 0.000000 0.000000 0.000000 0.000000 0.000000 10.000000 
L_mid_tent01 0.000000 0.000000 0.000000 0.000000 0.000000 0.000000 10.000000 
R_mid_tent01 0.000000 0.000000 0.000000 0.000000 0.000000 0.000000 10.000000 
spine01 0.000000 0.000000 0.000000 0.000000 0.000000 0.000000 10.000000 
Bip01_Neck 0.000000 0.000000 0.000000 0.000000 0.000000 0.000000 10.000000 
L_humerus 0.000000 0.000000 0.000000 0.000000 0.000000 0.000000 10.000000 
R_humerus 0.000000 0.000000 0.000000 0.000000 0.000000 0.000000 10.000000 
weapon_bone 0.000000 0.000000 0.000000 0.000000 0.000000 0.000000 10.000000 
Bip01_Head 0.000000 0.000000 0.000000 0.000000 0.000000 0.000000 10.000000 
eye_left_bone 0.000000 0.000000 0.000000 0.000000 0.000000 0.000000 10.000000 
eye_right_bone 0.000000 0.000000 0.000000 0.000000 0.000000 0.000000 10.000000 
L_forearm 0.000000 0.000000 0.000000 0.000000 0.000000 0.000000 10.000000 
L_front_hand 0.000000 0.000000 0.000000 0.000000 0.000000 0.000000 10.000000 
L_weapon_bone 0.000000 0.000000 0.000000 0.000000 0.000000 0.000000 10.000000 
L_front_hand01_01 0.000000 0.000000 0.000000 0.000000 0.000000 0.000000 10.000000 
L_front_hand02_01 0.000000 0.000000 0.000000 0.000000 0.000000 0.000000 10.000000 
L_front_hand03_01 0.000000 0.000000 0.000000 0.000000 0.000000 0.000000 10.000000 
L_front_hand01_02 0.000000 0.000000 0.000000 0.000000 0.000000 0.000000 10.000000 
L_front_hand02_02 0.000000 0.000000 0.000000 0.000000 0.000000 0.000000 10.000000 
L_front_hand03_02 0.000000 0.000000 0.000000 0.000000 0.000000 0.000000 10.000000 
R_forearm 0.000000 0.000000 0.000000 0.000000 0.000000 0.000000 10.000000 
R_front_hand 0.000000 0.000000 0.000000 0.000000 0.000000 0.000000 10.000000 
R_weapon_bone 0.000000 0.000000 0.000000 0.000000 0.000000 0.000000 10.000000 
R_front_hand01_01 0.000000 0.000000 0.000000 0.000000 0.000000 0.000000 10.000000 
R_front_hand02_01 0.000000 0.000000 0.000000 0.000000 0.000000 0.000000 10.000000 
R_front_hand03_01 0.000000 0.000000 0.000000 0.000000 0.000000 0.000000 10.000000 
R_front_hand01_02 0.000000 0.000000 0.000000 0.000000 0.000000 0.000000 10.000000 
R_front_hand02_02 0.000000 0.000000 0.000000 0.000000 0.000000 0.000000 10.000000 
R_front_hand03_02 0.000000 0.000000 0.000000 0.000000 0.000000 0.000000 10.000000 
null_rope01_connect 0.000000 0.000000 0.000000 0.000000 0.000000 0.000000 10.000000 
Rope1_Seg01 0.000000 0.000000 0.000000 0.000000 0.000000 0.000000 10.000000 
Rope1_Seg02 0.000000 0.000000 0.000000 0.000000 0.000000 0.000000 10.000000 
Rope1_Seg03 0.000000 0.000000 0.000000 0.000000 0.000000 0.000000 10.000000 
Rope1_Seg04 0.000000 0.000000 0.000000 0.000000 0.000000 0.000000 10.000000 
Rope1_Seg05 0.000000 0.000000 0.000000 0.000000 0.000000 0.000000 10.000000 
Rope1_Seg06 0.000000 0.000000 0.000000 0.000000 0.000000 0.000000 10.000000 
Rope1_Seg07 0.000000 0.000000 0.000000 0.000000 0.000000 0.000000 10.000000 
Rope1_Seg09 0.000000 0.000000 0.000000 0.000000 0.000000 0.000000 10.000000 
L_mid_hand01 0.000000 0.000000 0.000000 0.000000 0.000000 0.000000 10.000000 
L_mid_hand02 0.000000 0.000000 0.000000 0.000000 0.000000 0.000000 10.000000 
L_mid_hand03 0.000000 0.000000 0.000000 0.000000 0.000000 0.000000 10.000000 
null_rope02_connect 0.000000 0.000000 0.000000 0.000000 0.000000 0.000000 10.000000 
Rope2_Seg01 0.000000 0.000000 0.000000 0.000000 0.000000 0.000000 10.000000 
Rope2_Seg02 0.000000 0.000000 0.000000 0.000000 0.000000 0.000000 10.000000 
Rope2_Seg03 0.000000 0.000000 0.000000 0.000000 0.000000 0.000000 10.000000 
Rope2_Seg04 0.000000 0.000000 0.000000 0.000000 0.000000 0.000000 10.000000 
Rope2_Seg05 0.000000 0.000000 0.000000 0.000000 0.000000 0.000000 10.000000 
Rope2_Seg06 0.000000 0.000000 0.000000 0.000000 0.000000 0.000000 10.000000 
Rope2_Seg07 0.000000 0.000000 0.000000 0.000000 0.000000 0.000000 10.000000 
Rope2_Seg09 0.000000 0.000000 0.000000 0.000000 0.000000 0.000000 10.000000 
R_mid_hand01 0.000000 0.000000 0.000000 0.000000 0.000000 0.000000 10.000000 
R_mid_hand02 0.000000 0.000000 0.000000 0.000000 0.000000 0.000000 10.000000 
R_mid_hand03 0.000000 0.000000 0.000000 0.000000 0.000000 0.000000 10.000000 
spine02 0.000000 0.000000 0.000000 0.000000 0.000000 0.000000 10.000000 
spine03 0.000000 0.000000 0.000000 0.000000 0.000000 0.000000 10.000000 
pelvis 0.000000 0.000000 0.000000 0.000000 0.000000 0.000000 10.000000 
null_rope03_connect 0.000000 0.000000 0.000000 0.000000 0.000000 0.000000 10.000000 
null_rope04_connect 0.000000 0.000000 0.000000 0.000000 0.000000 0.000000 10.000000 
Rope3_Seg01 0.000000 0.000000 0.000000 0.000000 0.000000 0.000000 10.000000 
Rope3_Seg02 0.000000 0.000000 0.000000 0.000000 0.000000 0.000000 10.000000 
Rope3_Seg03 0.000000 0.000000 0.000000 0.000000 0.000000 0.000000 10.000000 
Rope3_Seg04 0.000000 0.000000 0.000000 0.000000 0.000000 0.000000 10.000000 
Rope3_Seg05 0.000000 0.000000 0.000000 0.000000 0.000000 0.000000 10.000000 
Rope3_Seg06 0.000000 0.000000 0.000000 0.000000 0.000000 0.000000 10.000000 
Rope3_Seg07 0.000000 0.000000 0.000000 0.000000 0.000000 0.000000 10.000000 
Rope3_Seg08 0.000000 0.000000 0.000000 0.000000 0.000000 0.000000 10.000000 
Rope3_Seg09 0.000000 0.000000 0.000000 0.000000 0.000000 0.000000 10.000000 
R_rear_hand01 0.000000 0.000000 0.000000 0.000000 0.000000 0.000000 10.000000 
R_rear_hand02 0.000000 0.000000 0.000000 0.000000 0.000000 0.000000 10.000000 
R_rear_hand03 0.000000 0.000000 0.000000 0.000000 0.000000 0.000000 10.000000 
Rope4_Seg01 0.000000 0.000000 0.000000 0.000000 0.000000 0.000000 10.000000 
Rope4_Seg02 0.000000 0.000000 0.000000 0.000000 0.000000 0.000000 10.000000 
Rope4_Seg03 0.000000 0.000000 0.000000 0.000000 0.000000 0.000000 10.000000 
Rope4_Seg04 0.000000 0.000000 0.000000 0.000000 0.000000 0.000000 10.000000 
Rope4_Seg05 0.000000 0.000000 0.000000 0.000000 0.000000 0.000000 10.000000 
Rope4_Seg06 0.000000 0.000000 0.000000 0.000000 0.000000 0.000000 10.000000 
Rope4_Seg07 0.000000 0.000000 0.000000 0.000000 0.000000 0.000000 10.000000 
Rope4_Seg08 0.000000 0.000000 0.000000 0.000000 0.000000 0.000000 10.000000 
Rope4_Seg09 0.000000 0.000000 0.000000 0.000000 0.000000 0.000000 10.000000 
L_rear_hand01 0.000000 0.000000 0.000000 0.000000 0.000000 0.000000 10.000000 
L_rear_hand02 0.000000 0.000000 0.000000 0.000000 0.000000 0.000000 10.000000 
L_rear_hand03 0.000000 0.000000 0.000000 0.000000 0.000000 0.000000 10.000000 
#Beginning of Data. Separated by tabs
#Fr	Tx	Ty	Tz	Rx	Ry	Rz	SF
[MASTER]
42 0.000000 0.000000 0.000000 0.001660 0.001660 0.001660 0.000000
43 0.000000 0.000000 0.000000 0.001660 0.001660 0.001660 0.000000
[root]
42 -16.502245 -199.343781 1093.534668 -85.747307 -61.785316 -93.080688 1111.678223
43 -16.502245 -199.343781 1093.534668 -85.747307 -61.785316 -93.080688 1111.678223
[chest]
42 -84.512650 -34.090519 0.000000 2.249789 -1.340620 -120.877396 91.129311
43 -84.512650 -34.090519 0.000000 2.257943 -1.356591 -121.093658 91.129311
[L_mid_tent01]
42 27.299500 22.177483 -249.917984 -17.041540 1.392292 126.773132 252.380859
43 27.299500 22.177483 -249.917984 -17.043350 1.328590 126.338066 252.380859
[R_mid_tent01]
42 23.228794 24.509907 226.238495 -174.943680 1.904267 116.659302 228.744751
43 23.228794 24.509907 226.238495 -174.933472 1.894800 116.254356 228.744751
[spine01]
42 -0.361383 -0.195265 0.000000 -0.000001 -0.000007 22.052340 0.410763
43 -0.361383 -0.195265 0.000000 -0.000001 -0.000007 22.052340 0.410763
[Bip01_Neck]
42 165.484543 71.581718 0.000119 175.896118 1.177290 24.871183 180.302734
43 165.484543 71.581718 0.000119 175.896118 1.177290 24.871183 180.302734
[L_humerus]
42 -13.983130 -135.272980 -120.471481 -91.668335 0.804969 -167.458282 181.680161
43 -13.983130 -135.272980 -120.471481 -91.668335 0.804969 -167.458282 181.680161
[R_humerus]
42 -13.983309 -135.273102 125.287651 103.000740 1.729733 -169.272232 184.909012
43 -13.983309 -135.273102 125.287651 103.000740 1.729734 -169.272232 184.909012
[weapon_bone]
42 235.964890 -300.705902 0.000000 0.000000 -89.951546 -128.212341 382.234833
43 235.964890 -300.705902 0.000000 0.000000 -89.951546 -128.212341 382.234833
[Bip01_Head]
42 102.819794 23.735441 5.410404 3.150732 3.423701 -20.839092 105.662453
43 102.819794 23.735439 5.410404 3.150732 3.423701 -20.839092 105.662453
[eye_left_bone]
42 -24.626970 125.451866 -64.772606 0.000000 -90.000000 -99.840431 143.318359
43 -24.626970 125.451866 -64.772606 0.000000 -90.000000 -99.840431 143.318359
[eye_right_bone]
42 -24.626970 125.451866 64.327362 0.000000 -89.960434 80.159386 143.117676
43 -24.626970 125.451866 64.327362 0.000000 -89.960434 80.159386 143.117676
[L_forearm]
42 322.776093 0.000000 -0.000119 0.000017 0.002347 -89.149834 322.776093
43 322.776093 0.000000 -0.000119 0.000017 0.002347 -89.149834 322.776093
[L_front_hand]
42 241.149185 -0.042021 -3.300071 -177.732727 -0.054396 -80.085007 241.171753
43 241.149185 -0.042021 -3.300071 -177.732986 -0.054813 -80.074661 241.171753
[L_weapon_bone]
42 156.183838 0.000000 0.000000 0.000014 0.000007 0.000001 156.183838
43 156.183838 0.000000 0.000000 0.000014 0.000007 0.000001 156.183838
[L_front_hand01_01]
42 86.095154 20.947098 -0.655860 0.405585 -0.442306 -4.620490 88.609184
43 86.095154 20.947098 -0.655860 0.405585 -0.442306 -4.620490 88.609184
[L_front_hand02_01]
42 86.935165 -11.437475 24.513514 116.959450 3.630817 1.495453 91.046425
43 86.935165 -11.437475 24.513514 116.959450 3.630817 1.495453 91.046425
[L_front_hand03_01]
42 86.637497 -14.123976 -20.424902 -118.420097 -4.656303 -0.152527 90.126129
43 86.637497 -14.123976 -20.424902 -118.420097 -4.656303 -0.152527 90.126129
[L_front_hand01_02]
42 71.020905 -0.000179 0.000030 0.000004 -0.000005 -8.379269 71.020905
43 71.020905 -0.000179 0.000030 0.000004 -0.000005 -8.379269 71.020905
[L_front_hand02_02]
42 71.020927 -0.000119 0.000060 -0.000005 -0.000004 -8.379259 71.020927
43 71.020927 -0.000119 0.000060 -0.000005 -0.000004 -8.379259 71.020927
[L_front_hand03_02]
42 71.020905 -0.000060 0.000060 0.000015 -0.000040 -8.379267 71.020905
43 71.020905 -0.000060 0.000060 0.000015 -0.000040 -8.379267 71.020905
[R_forearm]
42 322.776428 -0.000060 0.000030 0.207791 -0.034595 -81.247307 322.776428
43 322.776428 -0.000060 0.000030 0.207803 -0.034524 -81.286430 322.776428
[R_front_hand]
42 238.847015 -0.006795 2.210259 -1.675737 -0.421787 -92.843353 238.857239
43 238.847015 -0.006795 2.210259 -1.675794 -0.421563 -92.827980 238.857239
[R_weapon_bone]
42 155.664093 0.002503 -0.000030 0.003487 0.001180 -90.988930 155.664078
43 155.664093 0.002503 -0.000030 0.003487 0.001180 -90.988930 155.664078
[R_front_hand01_01]
42 87.624611 14.231146 22.918642 -116.960213 3.496675 -1.324139 91.683487
43 87.624611 14.231146 22.918642 -116.960213 3.496675 -1.324139 91.683487
[R_front_hand02_01]
42 89.356956 14.367283 -19.491137 118.419647 -4.257089 0.609827 92.579636
43 89.356956 14.367283 -19.491137 118.419647 -4.257089 0.609827 92.579636
[R_front_hand03_01]
42 87.286232 -22.307278 -0.143439 -0.387970 -0.231462 4.232001 90.091743
43 87.286232 -22.307278 -0.143439 -0.387970 -0.231462 4.232001 90.091743
[R_front_hand01_02]
42 71.020905 0.000060 0.000119 -0.000005 -0.000020 8.379271 71.020905
43 71.020905 0.000060 0.000119 -0.000005 -0.000020 8.379271 71.020905
[R_front_hand02_02]
42 71.020844 -0.000030 -0.000119 0.000000 -0.000021 8.379271 71.020836
43 71.020844 -0.000030 -0.000119 0.000000 -0.000021 8.379271 71.020836
[R_front_hand03_02]
42 71.020905 0.000000 0.000030 -0.000001 -0.000020 8.379275 71.020905
43 71.020905 0.000000 0.000030 -0.000001 -0.000020 8.379275 71.020905
[null_rope01_connect]
42 328.732483 0.000000 -0.000238 112.694847 -73.189278 -87.525368 328.732483
43 328.732483 0.000000 -0.000238 112.916344 -73.201530 -87.303146 328.732483
[Rope1_Seg01]
42 0.000000 0.000000 0.000000 75.477592 26.473324 84.622627 0.000000
43 0.000000 0.000000 0.000000 75.473213 27.724167 85.004074 0.000000
[Rope1_Seg02]
42 139.999863 -0.000179 0.000000 54.586487 -14.621389 50.638859 139.999863
43 139.999863 -0.000179 0.000000 53.598446 -15.096214 51.642986 139.999863
[Rope1_Seg03]
42 139.999924 0.000060 -0.000060 48.561546 10.051459 14.626700 139.999924
43 139.999924 0.000060 -0.000060 46.860134 9.434142 14.001188 139.999924
[Rope1_Seg04]
42 139.999924 -0.000060 -0.000119 38.727928 46.577217 8.603888 139.999924
43 139.999924 -0.000060 -0.000119 41.644688 46.132046 10.866994 139.999924
[Rope1_Seg05]
42 139.999832 0.000119 -0.000060 0.198017 21.767832 -11.892595 139.999832
43 139.999832 0.000119 -0.000060 0.285433 22.406469 -12.166031 139.999832
[Rope1_Seg06]
42 139.999954 0.000119 -0.000060 -0.472919 9.422122 -5.453406 139.999954
43 139.999954 0.000119 -0.000060 -0.473856 9.638223 -5.576984 139.999954
[Rope1_Seg07]
42 139.999985 0.000060 0.000000 -0.176790 2.996783 -1.714823 139.999985
43 139.999985 0.000060 0.000000 -0.184154 3.128531 -1.791153 139.999985
[Rope1_Seg09]
42 121.602913 0.000119 -0.000089 -89.793175 -1.359789 0.847147 121.602913
43 121.602913 0.000119 -0.000089 -89.793175 -1.359789 0.847147 121.602913
[L_mid_hand01]
42 103.859421 1.038730 8.195221 104.352036 0.341479 -0.444583 104.187431
43 103.859421 1.038730 8.195221 104.352051 0.341479 -0.444583 104.187431
[L_mid_hand02]
42 105.572853 -4.139662 -10.864139 -135.608444 3.905687 -3.381056 106.211075
43 105.572853 -4.139662 -10.864139 -135.608444 3.905687 -3.381056 106.211075
[L_mid_hand03]
42 104.641464 17.579376 -3.913581 -18.761518 -0.324361 2.942912 106.179977
43 104.641464 17.579376 -3.913581 -18.761518 -0.324361 2.942912 106.179977
[null_rope02_connect]
42 328.732849 0.000179 -0.000119 126.436935 84.332405 -88.720970 328.732849
43 328.732849 0.000179 -0.000119 126.868866 84.308212 -88.707024 328.732849
[Rope2_Seg01]
42 0.000076 0.000112 0.000153 -6.086854 51.447025 106.362282 0.000204
43 0.000076 0.000112 0.000153 -6.201985 51.518951 106.226898 0.000204
[Rope2_Seg02]
42 139.999741 -0.000060 -0.000119 -17.280127 -53.303051 -33.172752 139.999756
43 139.999741 -0.000060 -0.000119 -17.037676 -52.536175 -32.086933 139.999756
[Rope2_Seg03]
42 140.000107 0.000030 0.000000 -27.344990 -17.498352 -29.627977 140.000107
43 140.000107 0.000030 0.000000 -27.799170 -18.336590 -30.087305 140.000107
[Rope2_Seg04]
42 139.999802 0.000000 -0.000060 -20.465786 -11.653378 -31.216574 139.999802
43 139.999802 0.000000 -0.000060 -20.393198 -11.601518 -30.843416 139.999802
[Rope2_Seg05]
42 139.999985 -0.000060 0.000119 -12.166049 0.797044 -32.993080 139.999985
43 139.999985 -0.000060 0.000119 -12.396195 0.586404 -33.331387 139.999985
[Rope2_Seg06]
42 139.999893 -0.000030 -0.000119 -2.107984 3.465426 -13.047469 139.999893
43 139.999893 -0.000030 -0.000119 -2.160758 3.491980 -13.197519 139.999893
[Rope2_Seg07]
42 139.999893 0.000060 -0.000060 -0.332148 1.538869 -5.128731 139.999893
43 139.999893 0.000060 -0.000060 -0.343176 1.564156 -5.218091 139.999893
[Rope2_Seg09]
42 121.338966 0.000089 -0.000060 33.793236 -1.359788 -0.847141 121.338966
43 121.338966 0.000089 -0.000060 33.793236 -1.359788 -0.847141 121.338966
[R_mid_hand01]
42 104.680779 11.144459 -10.335981 -47.384258 2.963522 5.452604 105.778534
43 104.680779 11.144459 -10.335981 -47.384258 2.963522 5.452604 105.778534
[R_mid_hand02]
42 104.070427 2.443552 8.231699 75.626297 -2.250001 1.111093 104.424065
43 104.070427 2.443552 8.231699 75.626297 -2.250001 1.111093 104.424065
[R_mid_hand03]
42 106.028137 -11.221827 -5.996406 -164.381912 2.495983 -6.140520 106.788818
43 106.028137 -11.221827 -5.996406 -164.381912 2.495983 -6.140520 106.788818
[spine02]
42 129.756927 0.001550 0.000119 -3.559450 -2.891838 47.697292 129.756927
43 129.756927 0.001550 0.000119 -3.550294 -2.901819 47.488098 129.756927
[spine03]
42 79.115631 0.000000 -0.000119 5.585909 8.322803 52.774578 79.115631
43 79.115631 0.000000 -0.000119 5.564341 8.322334 52.553944 79.115631
[pelvis]
42 169.435242 0.051022 0.000000 -7.383492 -2.869901 14.199512 169.435257
43 169.435242 0.051022 0.000000 -7.365469 -2.865722 14.161176 169.435257
[null_rope03_connect]
42 -1.257226 -2.466202 137.391083 148.550980 -84.347466 -132.877777 137.418976
43 -1.257226 -2.466202 137.391083 148.909561 -84.356979 -132.730728 137.418976
[null_rope04_connect]
42 -1.259640 -2.480268 -137.844437 148.550980 -84.347466 -132.877777 137.872513
43 -1.259640 -2.480268 -137.844437 148.909561 -84.356979 -132.730728 137.872513
[Rope3_Seg01]
42 0.000010 0.000038 -0.000114 -172.166840 75.532059 -107.646706 0.000121
43 0.000010 0.000038 -0.000114 -172.594040 75.781136 -107.974182 0.000121
[Rope3_Seg02]
42 139.999924 -0.000119 0.000060 -9.934914 -18.480892 10.552648 139.999924
43 139.999924 -0.000119 0.000060 -9.792139 -18.312437 10.400460 139.999924
[Rope3_Seg03]
42 139.999924 -0.000119 0.000119 -19.288788 -44.203911 21.802788 139.999924
43 139.999924 -0.000119 0.000119 -19.081291 -43.916981 21.561842 139.999924
[Rope3_Seg04]
42 139.999924 0.000119 0.000000 -0.795108 -24.233290 4.746488 139.999924
43 139.999924 0.000119 0.000000 -0.848966 -24.391649 4.807931 139.999924
[Rope3_Seg05]
42 139.999924 -0.000238 0.000060 8.907195 -59.323307 14.435616 139.999924
43 139.999924 -0.000238 0.000060 8.872431 -58.914665 14.186139 139.999924
[Rope3_Seg06]
42 139.999893 -0.000119 -0.000060 11.580526 -44.490128 27.983345 139.999893
43 139.999893 -0.000119 -0.000060 11.577825 -44.992077 28.164341 139.999893
[Rope3_Seg07]
42 139.999771 0.000060 -0.000119 3.029504 -5.356360 6.187890 139.999771
43 139.999771 0.000060 -0.000119 3.051064 -5.402267 6.232934 139.999771
[Rope3_Seg08]
42 139.999985 -0.000060 0.000000 1.495825 -1.986231 2.573045 139.999985
43 139.999985 -0.000060 0.000000 1.501527 -1.997675 2.586410 139.999985
[Rope3_Seg09]
42 90.185997 -0.000179 -0.000060 89.793228 -1.359877 -0.847183 90.185997
43 90.185997 -0.000179 -0.000060 89.793228 -1.359877 -0.847183 90.185997
[R_rear_hand01]
42 103.366196 -6.073594 -10.757982 -156.049316 6.070419 -2.795869 104.101845
43 103.366196 -6.073594 -10.757982 -156.049316 6.070419 -2.795869 104.101845
[R_rear_hand02]
42 100.509819 12.039542 -7.992327 -38.708424 1.958050 5.461185 101.543350
43 100.509819 12.039542 -7.992327 -38.708435 1.958051 5.461186 101.543350
[R_rear_hand03]
42 101.539970 5.215704 5.435467 84.307625 -2.361032 4.099037 101.819031
43 101.539970 5.215704 5.435467 84.307625 -2.361032 4.099037 101.819031
[Rope4_Seg01]
42 -0.000012 0.000014 -0.000215 85.215866 78.589790 -76.383812 0.000216
43 -0.000013 0.000012 -0.000217 85.433472 78.792572 -76.239403 0.000217
[Rope4_Seg02]
42 139.999985 0.000060 0.000119 4.706313 5.283761 -13.925834 139.999985
43 139.999985 0.000060 0.000119 4.656326 5.215291 -13.802153 139.999985
[Rope4_Seg03]
42 139.999924 0.000000 -0.000238 5.017360 11.066441 -45.795620 139.999924
43 139.999924 0.000000 -0.000238 5.048319 10.967932 -45.301823 139.999924
[Rope4_Seg04]
42 139.999985 0.000000 0.000119 -2.821602 3.377431 -38.103260 139.999985
43 139.999985 0.000000 0.000119 -2.798115 3.423647 -38.370937 139.999985
[Rope4_Seg05]
42 139.999802 -0.000060 -0.000119 -8.452389 5.839731 -29.917387 139.999802
43 139.999802 -0.000060 -0.000119 -8.321618 5.766640 -29.650469 139.999802
[Rope4_Seg06]
42 139.999924 0.000000 0.000060 -22.361250 14.431261 -49.191959 139.999924
43 139.999924 0.000000 0.000060 -22.392597 14.371236 -49.349369 139.999924
[Rope4_Seg07]
42 139.999802 0.000000 0.000000 -6.267128 10.445581 -15.878174 139.999802
43 139.999802 0.000000 0.000000 -6.351311 10.519240 -16.045422 139.999802
[Rope4_Seg08]
42 139.999924 0.000000 0.000119 -2.579639 2.972366 -3.708064 139.999924
43 139.999924 0.000000 0.000119 -2.599893 3.015062 -3.764074 139.999924
[Rope4_Seg09]
42 90.185791 0.000060 0.000060 -135.617828 2.228885 0.850567 90.185791
43 90.185791 0.000060 0.000060 -135.617828 2.228885 0.850567 90.185791
[L_rear_hand01]
42 101.696655 -8.392275 -7.654577 -38.746338 0.246096 177.290207 102.329041
43 101.696655 -8.392275 -7.654577 -38.746338 0.246096 177.290207 102.329041
[L_rear_hand02]
42 102.726799 -1.568258 5.773216 84.314880 -1.139137 176.250763 102.900848
43 102.726799 -1.568258 5.773216 84.314880 -1.139137 176.250763 102.900848
[L_rear_hand03]
42 104.552910 9.721220 -10.420293 -155.747955 -4.630845 179.564758 105.519653
43 104.552910 9.721220 -10.420293 -155.747955 -4.630845 179.564758 105.519653
